<svg xmlns="http://www.w3.org/2000/svg" version="1.1" xmlns:xlink="http://www.w3.org/1999/xlink" xmlns:svgjs="http://svgjs.dev/svgjs" viewBox="0 0 1422 800" opacity="1"><defs><linearGradient x1="50%" y1="0%" x2="50%" y2="100%" id="oooscillate-grad"><stop stop-color="hsl(347, 74%, 51%)" stop-opacity="1" offset="0%"></stop><stop stop-color="hsl(287, 75%, 37%)" stop-opacity="1" offset="100%"></stop></linearGradient></defs><g stroke-width="2" stroke="url(#oooscillate-grad)" fill="none" stroke-linecap="round"><path d="M 0 630 Q 355.5 40 711 400 Q 1066.5 760 1422 630" opacity="1.00"></path><path d="M 0 612 Q 355.5 40 711 400 Q 1066.5 760 1422 612" opacity="0.97"></path><path d="M 0 594 Q 355.5 40 711 400 Q 1066.5 760 1422 594" opacity="0.94"></path><path d="M 0 576 Q 355.5 40 711 400 Q 1066.5 760 1422 576" opacity="0.92"></path><path d="M 0 558 Q 355.5 40 711 400 Q 1066.5 760 1422 558" opacity="0.89"></path><path d="M 0 540 Q 355.5 40 711 400 Q 1066.5 760 1422 540" opacity="0.86"></path><path d="M 0 522 Q 355.5 40 711 400 Q 1066.5 760 1422 522" opacity="0.83"></path><path d="M 0 504 Q 355.5 40 711 400 Q 1066.5 760 1422 504" opacity="0.80"></path><path d="M 0 486 Q 355.5 40 711 400 Q 1066.5 760 1422 486" opacity="0.78"></path><path d="M 0 468 Q 355.5 40 711 400 Q 1066.5 760 1422 468" opacity="0.75"></path><path d="M 0 450 Q 355.5 40 711 400 Q 1066.5 760 1422 450" opacity="0.72"></path><path d="M 0 432 Q 355.5 40 711 400 Q 1066.5 760 1422 432" opacity="0.69"></path><path d="M 0 414 Q 355.5 40 711 400 Q 1066.5 760 1422 414" opacity="0.66"></path><path d="M 0 396 Q 355.5 40 711 400 Q 1066.5 760 1422 396" opacity="0.64"></path><path d="M 0 378 Q 355.5 40 711 400 Q 1066.5 760 1422 378" opacity="0.61"></path><path d="M 0 360 Q 355.5 40 711 400 Q 1066.5 760 1422 360" opacity="0.58"></path><path d="M 0 342 Q 355.5 40 711 400 Q 1066.5 760 1422 342" opacity="0.55"></path><path d="M 0 324 Q 355.5 40 711 400 Q 1066.5 760 1422 324" opacity="0.53"></path><path d="M 0 306 Q 355.5 40 711 400 Q 1066.5 760 1422 306" opacity="0.50"></path><path d="M 0 288 Q 355.5 40 711 400 Q 1066.5 760 1422 288" opacity="0.47"></path><path d="M 0 270 Q 355.5 40 711 400 Q 1066.5 760 1422 270" opacity="0.44"></path><path d="M 0 252 Q 355.5 40 711 400 Q 1066.5 760 1422 252" opacity="0.41"></path><path d="M 0 234 Q 355.5 40 711 400 Q 1066.5 760 1422 234" opacity="0.39"></path><path d="M 0 216 Q 355.5 40 711 400 Q 1066.5 760 1422 216" opacity="0.36"></path><path d="M 0 198 Q 355.5 40 711 400 Q 1066.5 760 1422 198" opacity="0.33"></path><path d="M 0 180 Q 355.5 40 711 400 Q 1066.5 760 1422 180" opacity="0.30"></path><path d="M 0 162 Q 355.5 40 711 400 Q 1066.5 760 1422 162" opacity="0.27"></path><path d="M 0 144 Q 355.5 40 711 400 Q 1066.5 760 1422 144" opacity="0.25"></path><path d="M 0 126 Q 355.5 40 711 400 Q 1066.5 760 1422 126" opacity="0.22"></path><path d="M 0 108 Q 355.5 40 711 400 Q 1066.5 760 1422 108" opacity="0.19"></path><path d="M 0 90 Q 355.5 40 711 400 Q 1066.5 760 1422 90" opacity="0.16"></path><path d="M 0 72 Q 355.5 40 711 400 Q 1066.5 760 1422 72" opacity="0.13"></path><path d="M 0 54 Q 355.5 40 711 400 Q 1066.5 760 1422 54" opacity="0.11"></path><path d="M 0 36 Q 355.5 40 711 400 Q 1066.5 760 1422 36" opacity="0.08"></path></g></svg>